<?xml version="1.0" standalone="no"?>
<!DOCTYPE svg PUBLIC "-//W3C//DTD SVG 20010904//EN"
 "http://www.w3.org/TR/2001/REC-SVG-20010904/DTD/svg10.dtd">
<svg version="1.0" xmlns="http://www.w3.org/2000/svg"
 width="260.000000pt" height="260.000000pt" viewBox="0 0 260.000000 260.000000"
 preserveAspectRatio="xMidYMid meet">
<metadata>
Created by potrace 1.14, written by Peter Selinger 2001-2017
</metadata>
<g transform="translate(0.000000,260.000000) scale(0.100000,-0.100000)"
fill="#000000" stroke="none">
<path d="M1042 2583 c-18 -9 -44 -30 -56 -47 -70 -94 -55 -185 82 -511 111
-266 156 -405 181 -562 4 -29 4 -50 0 -47 -13 8 -114 164 -152 237 -41 76
-105 222 -167 377 -91 230 -166 337 -250 360 -93 25 -176 -12 -305 -137 -188
-181 -221 -307 -110 -418 48 -49 180 -116 387 -199 228 -91 419 -191 508 -267
l25 -21 -50 6 c-144 16 -258 53 -577 184 -225 93 -290 114 -367 115 -69 1
-122 -22 -159 -71 l-27 -35 -2 -241 -3 -241 28 -39 c38 -55 90 -79 166 -78 78
1 156 25 387 122 219 92 378 145 507 169 50 10 92 16 92 14 0 -25 -245 -171
-390 -232 -30 -13 -68 -29 -85 -37 -16 -7 -77 -32 -135 -54 -128 -51 -243
-110 -292 -150 -42 -35 -78 -103 -78 -147 0 -69 50 -157 147 -259 172 -182
310 -218 417 -111 52 53 95 136 184 352 39 94 84 200 100 236 27 61 115 220
134 244 5 6 21 27 37 47 15 21 30 35 33 33 8 -9 -39 -216 -72 -313 -17 -51
-67 -179 -111 -284 -101 -243 -121 -306 -121 -391 -1 -60 3 -73 28 -109 54
-76 67 -79 335 -76 l236 3 36 28 c45 34 66 73 71 129 7 82 -24 181 -155 493
-80 192 -134 369 -145 475 l-6 55 21 -25 c78 -94 172 -275 281 -541 136 -331
187 -401 303 -415 81 -10 164 36 286 156 155 154 194 269 126 372 -44 66 -121
110 -387 219 -174 71 -317 138 -398 185 -56 33 -160 105 -160 112 0 6 84 -5
160 -22 96 -21 241 -73 463 -165 109 -45 229 -90 268 -100 129 -33 211 -12
264 67 25 36 25 38 25 272 l-1 235 -27 39 c-38 55 -90 80 -166 78 -76 -1 -158
-26 -361 -112 -254 -107 -394 -154 -535 -180 -36 -6 -74 -13 -85 -15 -50 -9
151 123 280 184 39 18 86 41 105 51 19 9 107 46 195 80 246 98 336 154 374
233 47 96 11 191 -126 332 -225 233 -375 230 -500 -10 -22 -44 -69 -150 -103
-235 -35 -85 -81 -193 -103 -240 -36 -77 -113 -218 -127 -230 -3 -3 -18 -24
-34 -47 -27 -41 -50 -58 -41 -30 2 6 6 28 9 47 19 128 70 285 184 560 96 234
115 295 115 378 0 54 -5 70 -29 104 -53 74 -68 78 -324 78 -188 0 -230 -3
-258 -17z m404 -44 c137 -33 159 -93 100 -265 -28 -81 -57 -154 -85 -215 -56
-121 -151 -388 -151 -423 0 -33 -15 -5 -35 64 -18 61 -100 279 -130 345 -8 16
-29 68 -48 115 -107 264 -100 334 38 375 54 17 251 19 311 4z m-767 -234 c47
-24 99 -116 197 -352 51 -123 116 -268 144 -320 48 -92 56 -118 28 -95 -26 21
-217 111 -343 162 -249 100 -327 138 -381 186 -35 32 -39 40 -39 83 0 38 7 58
36 102 63 93 180 203 250 233 44 19 73 20 108 1z m1395 -28 c65 -43 164 -141
205 -204 62 -93 50 -158 -41 -217 -64 -40 -95 -55 -319 -146 -95 -39 -225 -98
-287 -130 l-112 -58 19 32 c39 64 110 215 171 366 106 265 156 356 215 389 32
18 93 5 149 -32z m-1746 -731 c37 -13 149 -57 249 -99 100 -42 229 -91 287
-109 58 -18 106 -35 106 -38 0 -3 -58 -24 -128 -46 -70 -23 -199 -72 -287
-109 -355 -150 -427 -157 -478 -47 -19 41 -22 65 -22 197 0 125 3 158 19 199
36 90 106 104 254 52z m2151 15 c10 -6 30 -32 43 -58 21 -44 23 -60 22 -203 0
-136 -3 -161 -21 -202 -51 -110 -120 -103 -491 52 -178 73 -312 122 -369 135
-33 7 -53 22 -29 22 23 0 207 64 331 116 220 91 320 130 365 143 48 14 117 12
149 -5z m-1460 -594 c-32 -62 -94 -202 -139 -311 -90 -222 -90 -221 -138 -294
-61 -93 -120 -103 -218 -38 -63 42 -162 141 -203 203 -62 94 -50 159 41 216
66 42 121 67 329 152 124 50 374 170 385 184 0 1 -25 -50 -57 -112z m661 28
c47 -23 155 -70 240 -105 214 -86 318 -138 363 -184 37 -36 39 -41 33 -83 -9
-67 -44 -120 -145 -219 -148 -147 -240 -159 -314 -42 -43 69 -61 107 -147 318
-39 96 -98 225 -130 287 l-59 112 37 -21 c20 -12 75 -40 122 -63z m-369 -32
c2 -44 61 -210 146 -413 116 -274 136 -350 109 -414 -12 -28 -27 -42 -63 -59
-43 -20 -64 -22 -203 -22 -138 0 -160 2 -202 22 -69 32 -87 76 -68 169 11 52
67 204 108 294 53 115 153 392 155 428 1 19 17 14 18 -5z"/>
</g>
</svg>
